
<svg aria-hidden="true" style="position: absolute; width: 0; height: 0; overflow: hidden;" version="1.1" xmlns="http://www.w3.org/2000/svg" xmlns:xlink="http://www.w3.org/1999/xlink">
<defs>
<!-- whatsapp -->
<symbol id="icon-whatsapp" viewBox="0 0 32 32">
<path  d="M0.006 32l2.163-7.949c-1.425-2.443-2.174-5.222-2.17-8.051 0-8.837 7.163-16 16-16s16 7.163 16 16c0 8.837-7.163 16-16 16-2.828 0.005-5.605-0.744-8.048-2.168l-7.946 2.168zM10.226 8.493c-0.207 0.013-0.409 0.067-0.594 0.16-0.174 0.098-0.332 0.221-0.47 0.365-0.192 0.181-0.301 0.338-0.418 0.49-0.591 0.77-0.909 1.714-0.904 2.685 0.003 0.784 0.208 1.547 0.528 2.261 0.654 1.443 1.731 2.971 3.154 4.387 0.342 0.341 0.677 0.683 1.037 1.002 1.765 1.554 3.869 2.675 6.144 3.274l0.91 0.139c0.296 0.016 0.592-0.006 0.89-0.021 0.466-0.024 0.921-0.15 1.333-0.37 0.21-0.108 0.414-0.225 0.613-0.352 0 0 0.069-0.045 0.2-0.144 0.216-0.16 0.349-0.274 0.528-0.461 0.133-0.138 0.248-0.299 0.336-0.483 0.125-0.261 0.25-0.758 0.301-1.173 0.038-0.317 0.027-0.49 0.022-0.597-0.006-0.171-0.149-0.349-0.304-0.424l-0.931-0.418c0 0-1.392-0.606-2.242-0.994-0.090-0.039-0.186-0.061-0.283-0.066-0.109-0.011-0.22 0.001-0.325 0.036s-0.2 0.092-0.28 0.167v-0.003c-0.008 0-0.115 0.091-1.272 1.493-0.066 0.089-0.158 0.157-0.263 0.194s-0.218 0.042-0.326 0.014c-0.104-0.028-0.206-0.063-0.306-0.106-0.198-0.083-0.267-0.115-0.403-0.174l-0.008-0.003c-0.915-0.399-1.763-0.939-2.512-1.6-0.202-0.176-0.389-0.368-0.581-0.554-0.629-0.603-1.178-1.285-1.632-2.029l-0.094-0.152c-0.068-0.102-0.123-0.212-0.163-0.328-0.061-0.235 0.098-0.424 0.098-0.424s0.389-0.426 0.57-0.656c0.151-0.191 0.291-0.391 0.421-0.597 0.189-0.304 0.248-0.616 0.149-0.858-0.448-1.094-0.912-2.184-1.389-3.266-0.094-0.214-0.374-0.368-0.629-0.398-0.086-0.010-0.173-0.019-0.259-0.026-0.215-0.011-0.43-0.009-0.645 0.006v0.002z"></path>
</symbol>
<!-- phone -->
<symbol id="icon-phone" viewBox="0 0 30 32">
<path  d="M28.728 22.009c-2.077 0-4.087-0.356-5.962-0.996-0.591-0.213-1.25-0.053-1.706 0.427l-2.652 3.502c-4.78-2.4-9.255-6.933-11.636-12.142l3.293-2.951c0.456-0.498 0.591-1.191 0.405-1.813-0.625-1.973-0.946-4.089-0.946-6.276 0-0.96-0.76-1.76-1.672-1.76h-5.844c-0.912 0-2.010 0.427-2.010 1.76 0 16.516 13.055 30.24 28.728 30.24 1.199 0 1.672-1.12 1.672-2.098v-6.133c0-0.96-0.76-1.76-1.672-1.76z"></path>
</symbol>
<!-- mail -->
<symbol id="icon-mail" viewBox="0 0 41 32">
<path d="M36.48 0h-32.427c-2.229 0-4.033 1.8-4.033 4l-0.020 24c0 2.2 1.824 4 4.053 4h32.427c2.229 0 4.053-1.8 4.053-4v-24c0-2.2-1.824-4-4.053-4zM36.48 8l-16.213 10-16.213-10v-4l16.213 10 16.213-10v4z"></path>
</symbol>

<!-- face-group -->
<symbol id="icon-face-group" viewBox="0 0 31 32">
<path fill="#fff" style="fill: var(--color1, #fff)" d="M29.775 14.887c0 8.222-6.665 14.887-14.887 14.887s-14.887-6.665-14.887-14.887c0-8.222 6.665-14.887 14.887-14.887s14.887 6.665 14.887 14.887z"></path>
<path fill="#00a5c7" style="fill: var(--color2, #00a5c7)" d="M20.249 20.77l0.698-4.519h-4.36v-2.933c0-1.236 0.609-2.442 2.562-2.442h1.982v-3.847c0 0-1.798-0.305-3.518-0.305-3.59 0-5.937 2.165-5.937 6.083v3.445h-3.991v4.519h3.991v10.925h4.912v-10.925l3.663-0.001z"></path>
</symbol>

<!-- insta-group -->
<symbol id="icon-insta-group" viewBox="0 0 33 32">
<path fill="#fff" style="fill: var(--color1, #fff)" d="M32.23 15.535c0 8.58-6.955 15.535-15.535 15.535s-15.535-6.955-15.535-15.535c0-8.58 6.955-15.535 15.535-15.535s15.535 6.955 15.535 15.535z"></path>
<path fill="#00a5c7" style="fill: var(--color2, #00a5c7)" d="M26.155 11.634c-0.011-0.8-0.161-1.591-0.443-2.339-0.245-0.631-0.619-1.204-1.099-1.683s-1.053-0.852-1.686-1.097c-0.74-0.277-1.522-0.427-2.312-0.443-1.017-0.045-1.34-0.058-3.922-0.058s-2.913 0-3.923 0.058c-0.79 0.016-1.571 0.166-2.311 0.443-0.632 0.244-1.207 0.618-1.686 1.096s-0.854 1.052-1.098 1.683c-0.278 0.738-0.428 1.518-0.443 2.307-0.045 1.017-0.059 1.339-0.059 3.917s0 2.907 0.059 3.917c0.016 0.79 0.165 1.569 0.443 2.309 0.245 0.631 0.62 1.204 1.099 1.683s1.054 0.852 1.686 1.096c0.738 0.288 1.519 0.449 2.311 0.475 1.018 0.045 1.341 0.059 3.923 0.059s2.913 0 3.923-0.059c0.79-0.016 1.572-0.165 2.311-0.442 0.632-0.245 1.206-0.619 1.685-1.097s0.854-1.052 1.099-1.683c0.278-0.739 0.427-1.518 0.443-2.309 0.045-1.015 0.059-1.337 0.059-3.917-0.002-2.578-0.002-2.905-0.061-3.916zM16.688 20.393c-2.701 0-4.889-2.184-4.889-4.881s2.188-4.88 4.889-4.88c1.297 0 2.54 0.514 3.457 1.429s1.432 2.157 1.432 3.451c0 1.294-0.515 2.536-1.432 3.451s-2.16 1.43-3.457 1.43zM21.771 11.59c-0.15 0-0.298-0.029-0.436-0.086s-0.264-0.141-0.37-0.247-0.19-0.231-0.247-0.369c-0.057-0.138-0.087-0.286-0.086-0.436s0.029-0.297 0.087-0.435c0.057-0.138 0.141-0.263 0.247-0.369s0.232-0.189 0.37-0.247c0.138-0.057 0.286-0.087 0.436-0.087s0.298 0.029 0.436 0.087c0.138 0.057 0.264 0.141 0.37 0.247s0.19 0.231 0.247 0.369c0.057 0.138 0.087 0.286 0.087 0.435 0 0.629-0.51 1.138-1.139 1.138z"></path>
<path fill="#00a5c7" style="fill: var(--color2, #00a5c7)" d="M16.688 18.683c1.754 0 3.175-1.419 3.175-3.17s-1.422-3.17-3.175-3.17c-1.754 0-3.176 1.419-3.176 3.17s1.422 3.17 3.176 3.17z"></path>
</symbol>
<!-- search-icon -->
<symbol id="icon-search" viewBox="0 0 32 32">
<path fill="none" stroke="#fff" style="stroke: var(--color1, #fff)" stroke-linejoin="round" stroke-linecap="round" stroke-miterlimit="4" stroke-width="3.2" d="M30.4 30.4l-6.949-6.949M23.451 23.451c2.316-2.316 3.749-5.516 3.749-9.051 0-7.069-5.731-12.8-12.8-12.8s-12.8 5.731-12.8 12.8c0 7.069 5.731 12.8 12.8 12.8 3.535 0 6.735-1.433 9.051-3.749z"></path>
</symbol>
<!-- telegram-group -->
<symbol id="icon-telegram-group" viewBox="0 0 32 32">
<path fill="#fff" style="fill: var(--color1, #fff)" d="M32 15.535c0 8.58-6.955 15.535-15.535 15.535s-15.535-6.955-15.535-15.535c0-8.58 6.955-15.535 15.535-15.535s15.535 6.955 15.535 15.535z"></path>
<path fill="#00a5c7" style="fill: var(--color2, #00a5c7)" d="M25.924 8.658l-3.327 15.309c-0.251 1.080-0.906 1.349-1.836 0.841l-5.070-3.645-2.446 2.296c-0.271 0.264-0.497 0.485-1.019 0.485l0.365-5.037 9.396-8.284c0.409-0.355-0.089-0.552-0.635-0.197l-11.616 7.136-5.001-1.527c-1.088-0.331-1.107-1.061 0.227-1.57l19.561-7.352c0.906-0.331 1.698 0.197 1.403 1.547v-0.001z"></path>
</symbol>
<!-- phonering -->
<symbol id="icon-phonering" viewBox="0 0 32 32">
<path fill="#fff" style="fill: var(--color1, #fff)" d="M27.376 32c-0.417-0.161-0.864-0.163-1.295-0.236-3.485-0.598-6.745-1.815-9.771-3.623-5.835-3.486-10.363-8.225-13.45-14.3-1.396-2.747-2.321-5.652-2.739-8.71-0.041-0.298-0.089-0.596-0.114-0.896-0.047-0.555 0.211-0.932 0.707-1.164 1.961-0.921 3.921-1.843 5.882-2.766 0.271-0.128 0.533-0.293 0.848-0.277 0.398 0.020 0.715 0.195 0.934 0.535 1.299 2.018 2.601 4.034 3.895 6.055 0.326 0.509 0.255 1.027-0.184 1.47-0.755 0.762-1.503 1.53-2.279 2.271-0.408 0.389-0.5 0.828-0.406 1.358 0.352 1.972 1.184 3.731 2.379 5.319 1.518 2.019 3.393 3.618 5.7 4.684 0.926 0.429 1.893 0.728 2.9 0.9 0.484 0.083 0.89-0.038 1.243-0.404 0.737-0.764 1.497-1.508 2.249-2.257 0.504-0.502 0.995-0.558 1.594-0.174 1.966 1.262 3.926 2.533 5.898 3.788 0.337 0.214 0.497 0.524 0.636 0.866 0 0.104 0 0.208 0 0.312-0.076 0.165-0.152 0.331-0.23 0.495-0.904 1.923-1.814 3.843-2.707 5.772-0.197 0.425-0.433 0.789-0.875 0.983-0.271 0-0.541 0-0.812 0z"></path>
<path fill="#fff" style="fill: var(--color1, #fff)" d="M32 16.312c-0.097 0.032-0.080 0.134-0.118 0.2-0.231 0.417-0.712 0.67-1.144 0.591-0.52-0.095-0.886-0.469-0.935-0.984-0.066-0.683-0.060-1.37-0.158-2.052-0.343-2.395-1.242-4.556-2.723-6.461-2.233-2.873-5.164-4.6-8.746-5.223-0.749-0.13-1.512-0.134-2.269-0.183-0.486-0.031-0.811-0.311-0.96-0.765-0.238-0.72 0.292-1.433 1.059-1.435 2.734-0.009 5.314 0.631 7.69 1.976 4.341 2.46 7.018 6.156 8.033 11.046 0.105 0.508 0.179 1.023 0.208 1.544 0.002 0.049-0.008 0.106 0.063 0.121 0.001 0.542 0.001 1.083 0.001 1.625z"></path>
<path fill="#fff" style="fill: var(--color1, #fff)" d="M26.489 15.635c0.015 0.808-0.249 1.254-0.759 1.42-0.753 0.245-1.459-0.29-1.467-1.135-0.011-1.192-0.245-2.336-0.771-3.4-1.332-2.7-3.488-4.29-6.483-4.72-0.332-0.048-0.664-0.043-0.996-0.061-0.653-0.033-1.142-0.529-1.128-1.137 0.014-0.631 0.522-1.097 1.197-1.095 4.928 0.014 9.254 3.598 10.213 8.466 0.116 0.591 0.171 1.193 0.194 1.663z"></path>
</symbol>
<!-- owlprev -->
<symbol id="icon-owlprev" viewBox="0 0 49 32">
<path  d="M47.686 15.329c0-0.452-0.179-0.885-0.499-1.204s-0.752-0.499-1.204-0.499h-40.166l10.718-10.715c0.158-0.158 0.284-0.346 0.37-0.553s0.13-0.429 0.13-0.653c0-0.224-0.044-0.446-0.13-0.653s-0.211-0.395-0.37-0.553c-0.158-0.158-0.346-0.284-0.553-0.37s-0.429-0.13-0.653-0.13c-0.224 0-0.446 0.044-0.653 0.13s-0.395 0.211-0.553 0.37l-13.624 13.624c-0.159 0.158-0.284 0.346-0.37 0.553s-0.13 0.429-0.13 0.653c0 0.224 0.044 0.446 0.13 0.653s0.212 0.395 0.37 0.553l13.624 13.624c0.158 0.159 0.346 0.284 0.553 0.37s0.429 0.13 0.653 0.13c0.224 0 0.446-0.044 0.653-0.13s0.395-0.211 0.553-0.37c0.158-0.158 0.284-0.346 0.37-0.553s0.13-0.429 0.13-0.653c0-0.224-0.044-0.446-0.13-0.652s-0.211-0.395-0.37-0.553l-10.719-10.715h40.166c0.452 0 0.885-0.179 1.204-0.499s0.499-0.753 0.499-1.204z"></path>
</symbol>
<!-- playicon -->
<symbol id="icon-playicon" viewBox="0 0 28 32">
<path fill="#fff" style="fill: var(--color1, #fff)" d="M0 32l27.676-16-27.676-16v32z"></path>
</symbol>
<!-- blue ring -->
<symbol id="icon-blueringphone" viewBox="0 0 32 32">
<path fill="#00a5c7" style="fill: var(--color1, #00a5c7)" d="M27.376 32c-0.417-0.161-0.864-0.163-1.295-0.236-3.485-0.598-6.745-1.815-9.771-3.623-5.835-3.486-10.363-8.225-13.45-14.3-1.396-2.747-2.321-5.652-2.739-8.71-0.041-0.298-0.089-0.596-0.114-0.896-0.047-0.555 0.211-0.932 0.707-1.164 1.961-0.92 3.921-1.843 5.882-2.766 0.271-0.128 0.533-0.293 0.848-0.277 0.398 0.020 0.715 0.195 0.934 0.535 1.299 2.018 2.601 4.034 3.895 6.055 0.326 0.509 0.255 1.027-0.184 1.47-0.755 0.762-1.503 1.53-2.279 2.271-0.408 0.389-0.5 0.828-0.406 1.358 0.352 1.972 1.184 3.731 2.379 5.319 1.518 2.019 3.394 3.618 5.7 4.683 0.926 0.428 1.893 0.728 2.9 0.9 0.484 0.083 0.89-0.038 1.243-0.404 0.738-0.764 1.497-1.508 2.249-2.257 0.504-0.502 0.995-0.558 1.594-0.174 1.966 1.262 3.926 2.533 5.898 3.788 0.337 0.214 0.497 0.524 0.636 0.866 0 0.104 0 0.208 0 0.312-0.076 0.165-0.152 0.331-0.23 0.495-0.904 1.923-1.814 3.843-2.707 5.772-0.197 0.425-0.433 0.789-0.875 0.983-0.271 0-0.541 0-0.812 0z"></path>
<path fill="#00a5c7" style="fill: var(--color1, #00a5c7)" d="M32 16.312c-0.097 0.032-0.080 0.134-0.118 0.2-0.231 0.417-0.712 0.67-1.144 0.59-0.52-0.095-0.886-0.469-0.935-0.984-0.066-0.683-0.060-1.37-0.158-2.052-0.343-2.395-1.242-4.556-2.723-6.461-2.233-2.873-5.164-4.6-8.746-5.223-0.749-0.13-1.512-0.134-2.269-0.183-0.486-0.031-0.811-0.311-0.96-0.765-0.238-0.72 0.292-1.433 1.059-1.435 2.735-0.009 5.314 0.631 7.69 1.976 4.341 2.46 7.018 6.156 8.033 11.046 0.105 0.508 0.179 1.023 0.208 1.544 0.002 0.049-0.008 0.106 0.063 0.121 0.001 0.542 0.001 1.083 0.001 1.626z"></path>
<path fill="#00a5c7" style="fill: var(--color1, #00a5c7)" d="M26.489 15.635c0.015 0.808-0.249 1.254-0.759 1.42-0.753 0.245-1.459-0.29-1.467-1.135-0.011-1.192-0.246-2.336-0.771-3.4-1.332-2.7-3.488-4.29-6.483-4.72-0.332-0.048-0.664-0.043-0.996-0.061-0.653-0.033-1.142-0.529-1.128-1.137 0.014-0.631 0.522-1.097 1.197-1.095 4.928 0.014 9.253 3.598 10.213 8.466 0.116 0.591 0.171 1.193 0.194 1.663z"></path>
</symbol>

<symbol id="icon-map" viewBox="0 0 29 32">
<path  d="M15.089-0.135c0.738 0.142 1.492 0.229 2.214 0.434 2.098 0.592 3.807 1.799 5.166 3.52 0.987 1.247 1.662 2.659 1.989 4.222 0.583 2.762 0.171 5.366-1.297 7.765-1.049 1.712-2.136 3.393-3.208 5.090-0.047 0.079-0.093 0.158-0.155 0.276 0.326 0.063 0.629 0.11 0.932 0.174 1.771 0.363 3.511 0.821 5.112 1.697 0.886 0.481 1.701 1.057 2.206 1.965 0.614 1.097 0.528 2.17-0.194 3.188-0.567 0.805-1.375 1.334-2.23 1.776-1.779 0.915-3.698 1.389-5.655 1.712-3.092 0.505-6.207 0.576-9.322 0.237-2.354-0.253-4.661-0.71-6.844-1.697-0.963-0.434-1.864-0.963-2.556-1.799-1.103-1.342-1.010-2.991 0.225-4.214 0.839-0.829 1.857-1.365 2.929-1.791 1.437-0.568 2.936-0.939 4.459-1.2 0.078-0.016 0.155-0.039 0.264-0.063-0.078-0.126-0.132-0.221-0.194-0.316-1.064-1.689-2.152-3.362-3.193-5.066-1.344-2.202-1.833-4.601-1.391-7.158 0.676-3.701 2.75-6.329 6.122-7.907 0.994-0.466 2.051-0.71 3.146-0.797 0.078-0.008 0.163-0.032 0.241-0.047 0.412 0 0.823 0 1.235 0zM14.468 26.089c0.078-0.118 0.14-0.205 0.202-0.3 2.237-3.551 4.467-7.118 6.72-10.662 1.771-2.794 1.996-5.706 0.536-8.665-1.352-2.738-3.605-4.332-6.619-4.632-3.17-0.316-5.725 0.915-7.629 3.496-1.997 2.699-2.121 6.637-0.326 9.486 2.307 3.67 4.622 7.339 6.937 11.009 0.047 0.079 0.109 0.158 0.179 0.268zM14.468 30.177c0.66 0 1.328 0.032 1.989-0.008 2.292-0.11 4.552-0.45 6.727-1.199 1.002-0.339 1.973-0.75 2.789-1.468 0.8-0.71 0.831-1.342 0.016-2.052-0.427-0.371-0.917-0.687-1.422-0.939-1.608-0.805-3.356-1.16-5.112-1.484-0.622-0.118-0.917 0.063-1.235 0.592-0.924 1.563-1.927 3.086-2.89 4.624-0.249 0.402-0.575 0.623-1.057 0.545-0.334-0.055-0.528-0.292-0.707-0.568-1.057-1.689-2.129-3.378-3.177-5.074-0.101-0.166-0.202-0.221-0.396-0.181-0.443 0.087-0.901 0.134-1.344 0.221-1.639 0.308-3.263 0.71-4.723 1.563-0.458 0.268-0.886 0.616-1.258 1.002-0.443 0.458-0.419 0.955-0.008 1.436 0.202 0.237 0.435 0.45 0.691 0.631 0.979 0.694 2.090 1.097 3.224 1.421 2.587 0.734 5.228 0.979 7.893 0.939z"></path>
</symbol>

<symbol id="icon-aid-kit" viewBox="0 0 32 32">
<path d="M28 8h-6v-4c0-1.1-0.9-2-2-2h-8c-1.1 0-2 0.9-2 2v4h-6c-2.2 0-4 1.8-4 4v16c0 2.2 1.8 4 4 4h24c2.2 0 4-1.8 4-4v-16c0-2.2-1.8-4-4-4zM12 4h8v4h-8v-4zM24 22h-6v6h-4v-6h-6v-4h6v-6h4v6h6v4z"></path>
</symbol>

<symbol id="icon-stats-dots" viewBox="0 0 32 32">
<path d="M4 28h28v4h-32v-32h4zM9 26c-1.657 0-3-1.343-3-3s1.343-3 3-3c0.088 0 0.176 0.005 0.262 0.012l3.225-5.375c-0.307-0.471-0.487-1.033-0.487-1.638 0-1.657 1.343-3 3-3s3 1.343 3 3c0 0.604-0.179 1.167-0.487 1.638l3.225 5.375c0.086-0.007 0.174-0.012 0.262-0.012 0.067 0 0.133 0.003 0.198 0.007l5.324-9.316c-0.329-0.482-0.522-1.064-0.522-1.691 0-1.657 1.343-3 3-3s3 1.343 3 3c0 1.657-1.343 3-3 3-0.067 0-0.133-0.003-0.198-0.007l-5.324 9.316c0.329 0.481 0.522 1.064 0.522 1.691 0 1.657-1.343 3-3 3s-3-1.343-3-3c0-0.604 0.179-1.167 0.487-1.638l-3.225-5.375c-0.086 0.007-0.174 0.012-0.262 0.012s-0.176-0.005-0.262-0.012l-3.225 5.375c0.307 0.471 0.487 1.033 0.487 1.637 0 1.657-1.343 3-3 3z"></path>
</symbol>
<symbol id="icon-13389625601640837502" viewBox="0 0 32 32">
<path d="M7.002 1c-3.308 0-6.002 2.694-6.002 6.002 0 2.989 2.197 5.481 5.078 5.926-0.058 0.29-0.080 0.63-0.076 1.072-0.006 0.748 0.067 1.249 0.254 1.609 0.197 0.381 0.503 0.554 0.798 0.679 0.248 0.105 0.423 0.167 0.623 0.34s0.438 0.474 0.69 1.096 0.293 1.003 0.27 1.267c-0.023 0.264-0.11 0.431-0.214 0.683-0.125 0.305-0.21 0.639-0.081 1.052s0.423 0.808 0.959 1.351c0.032 0.032 0.058 0.058 0.089 0.089-0.546 0.208-1.025 0.34-1.406 0.34 0.001-0.276-0.222-0.501-0.498-0.502h-5.987c-0.276 0.001-0.499 0.226-0.498 0.502v7.496c0.001 0.275 0.223 0.497 0.498 0.498h5.987c0.275-0.001 0.497-0.223 0.498-0.498h0.517c0.597 0 2.52 0.244 4.341 0.494 0.91 0.125 1.811 0.253 2.551 0.348s1.289 0.158 1.627 0.158c0.854 0 1.747-0.502 2.75-1.181s2.077-1.569 3.074-2.455c1.989-1.767 3.639-3.499 3.671-3.532 0.651-0.65 0.585-1.543 0.162-2.162-0.095-0.14-0.209-0.258-0.341-0.361 0.16-0.253 0.25-0.489 0.274-0.731 0.037-0.37-0.092-0.659-0.178-0.871s-0.149-0.376-0.155-0.635c-0.006-0.259 0.051-0.626 0.292-1.192 0.263-0.617 0.506-0.919 0.712-1.093s0.394-0.238 0.65-0.355c0.257-0.117 0.581-0.29 0.797-0.73 0.18-0.368 0.267-0.903 0.273-1.701-0.006-0.625-0.055-1.070-0.168-1.423l0.204-0.205 0.741 0.742c0.303 0.303 0.822 0.11 0.853-0.317l0.367-4.756c0.025-0.308-0.23-0.566-0.537-0.541l-3.871 0.308c0.023-0.125 0.034-0.26 0.016-0.415-0.061-0.496-0.378-0.953-1.045-1.605-0.545-0.534-0.942-0.828-1.355-0.956s-0.746-0.043-1.052 0.082c-0.252 0.103-0.421 0.191-0.687 0.214s-0.654-0.019-1.278-0.27c-0.625-0.252-0.925-0.49-1.1-0.69s-0.237-0.375-0.347-0.624c-0.11-0.249-0.271-0.574-0.701-0.789-0.386-0.193-0.875-0.261-1.64-0.255s-1.277 0.094-1.635 0.28c-0.439 0.229-0.581 0.55-0.687 0.801s-0.165 0.432-0.336 0.635c-0.171 0.203-0.472 0.447-1.093 0.709-0.402 0.17-0.692 0.245-0.928 0.274-0.781-2.48-3.092-4.198-5.723-4.198zM6.99 3.491c0.284-0.006 0.515 0.226 0.51 0.51v3.001c-0.001 0.132-0.054 0.258-0.147 0.351l-1.499 1.502c-0.473 0.493-1.201-0.237-0.708-0.709l1.354-1.354v-2.79c-0.005-0.276 0.214-0.504 0.49-0.51zM17.41 3.499c0.748 0 1.045 0.078 1.185 0.147 0.129 0.064 0.173 0.164 0.232 0.299 0.087 0.199 0.212 0.538 0.51 0.879s0.754 0.67 1.48 0.963c0.727 0.293 1.285 0.373 1.736 0.334s0.774-0.2 0.976-0.282c0.184-0.063 0.232-0.098 0.381-0.052s0.458 0.229 0.952 0.713c0.604 0.592 0.732 0.869 0.75 1.015 0.015 0.13-0.052 0.257-0.122 0.435-0.276 0.169-0.322 0.551-0.093 0.78l0.742 0.741-2.873 2.871c-0.646-2.245-2.564-3.953-4.938-4.284-2.715-0.379-5.345 1.135-6.382 3.672s-0.22 5.464 1.982 7.095c2.071 1.534 4.878 1.561 6.972 0.118l0.493 0.43c0.197 0.171 0.495 0.159 0.681-0.024l5.9-5.912c0.015 0.16 0.022 0.346 0.023 0.568-0.008 0.718-0.080 1.067-0.173 1.258-0.061 0.125-0.115 0.173-0.311 0.263s-0.533 0.207-0.878 0.498-0.683 0.743-0.989 1.462c-0.281 0.66-0.383 1.18-0.373 1.612s0.14 0.763 0.23 0.985c0.090 0.222 0.119 0.309 0.11 0.395-0.037 0.203-0.147 0.319-0.243 0.465-0.328-0.022-0.665 0.040-0.979 0.203l-4.012 1.855h-1.397c0.011-0.082 0.016-0.164 0.016-0.249 0-0.961-0.771-1.749-1.749-1.749-2.264 0.004-1.992 0.002-4.267 0-0.781 0-1.711 0.372-2.579 0.741-0.116-0.099-0.247-0.218-0.396-0.369-0.486-0.492-0.67-0.801-0.716-0.948-0.028-0.090-0.028-0.172 0.055-0.373s0.245-0.524 0.284-0.975c0.039-0.451-0.046-1.006-0.34-1.73s-0.621-1.18-0.964-1.477c-0.343-0.296-0.687-0.417-0.889-0.502-0.146-0.062-0.229-0.093-0.296-0.222-0.080-0.154-0.149-0.467-0.144-1.147-0.006-0.681 0.064-0.995 0.144-1.148 0.050-0.097 0.094-0.132 0.296-0.218s0.546-0.206 0.889-0.502 0.67-0.755 0.964-1.479c0.294-0.724 0.379-1.277 0.34-1.728s-0.202-0.778-0.284-0.979c-0.061-0.149-0.095-0.243-0.055-0.372 0.046-0.147 0.23-0.457 0.716-0.949s0.806-0.688 0.941-0.727c0.148-0.049 0.202-0.015 0.38 0.044 0.203 0.079 0.53 0.234 0.982 0.266s1.009-0.060 1.73-0.365c0.722-0.305 1.174-0.639 1.466-0.985s0.406-0.69 0.49-0.89c0.084-0.2 0.141-0.253 0.229-0.299 0.136-0.078 0.487-0.164 1.181-0.17zM29.957 8.545l-0.24 3.089-0.325-0.325c-0.195-0.196-0.513-0.196-0.708 0l-6.984 7.002-5.142-4.462c-0.149-0.129-0.36-0.158-0.539-0.074l-3.34 1.56c-0.205-0.74-0.236-1.527-0.083-2.3l4.283-1.946 4.551 3.854c0.198 0.168 0.491 0.156 0.676-0.026l5.098-5.090c0.197-0.195 0.197-0.514 0-0.709l-0.328-0.328zM25.262 21.938c0.241 0.007 0.468 0.114 0.587 0.296 0.182 0.267 0.225 0.623-0.053 0.9 0 0-1.662 1.747-3.617 3.484-0.978 0.868-2.029 1.732-2.971 2.369s-1.808 1.012-2.189 1.012c-0.177 0-0.771-0.058-1.502-0.151s-1.627-0.218-2.539-0.343c-1.823-0.25-3.647-0.506-4.478-0.506h-0.517v-5.496c0.91 0 1.814-0.415 2.69-0.79s1.727-0.712 2.311-0.712c2.275 0.002 2.003 0.004 4.267 0 0.424 0 0.749 0.342 0.749 0.749s-0.325 0.749-0.749 0.749h-3.266c-0.667 0-0.667 1.001 0 1.001h3.266c0.476 0 0.913-0.191 1.23-0.504 0.011 0.001 0.017 0.004 0.029 0.004h1.979c0.073 0.001 0.145-0.013 0.211-0.044l4.134-1.914c0.134-0.076 0.284-0.108 0.429-0.105z"></path>
</symbol>

<symbol id="icon-service-four" viewBox="0 0 32 32">
<path fill="none"  stroke-linejoin="round" stroke-linecap="round" stroke-miterlimit="10" stroke-width="1.6" d="M4.467 2.667h11.867c0.992 0.005 1.795 0.808 1.8 1.799v1.974c0 0.72-0.453 1.613-0.893 2.067l-3.867 3.413c-0.533 0.453-0.893 1.347-0.893 2.067v3.867c0 0.533-0.36 1.253-0.813 1.533l-1.253 0.813c-1.173 0.72-2.787-0.093-2.787-1.533v-4.76c0-0.627-0.36-1.44-0.72-1.893l-3.413-3.6c-0.453-0.453-0.813-1.253-0.813-1.8v-2.067c-0.013-1.067 0.8-1.88 1.787-1.88z"></path>
<path fill="none"  stroke-linejoin="round" stroke-linecap="round" stroke-miterlimit="4" stroke-width="1.6" d="M2.667 16v4c0 6.667 2.667 9.333 9.333 9.333h8c6.667 0 9.333-2.667 9.333-9.333v-8c0-4.16-1.040-6.773-3.453-8.133-0.68-0.387-2.040-0.68-3.28-0.88M17.333 17.333h6.667M14.667 22.667h9.333"></path>
</symbol>

<symbol id="icon-service-one" viewBox="0 0 32 32">
<path fill="none" stroke-linejoin="round" stroke-linecap="round" stroke-miterlimit="4" stroke-width="1.6" d="M14.667 22.667l2.667-2.667h-8"></path>
<path fill="none" stroke-linejoin="round" stroke-linecap="round" stroke-miterlimit="4" stroke-width="1.6" d="M29.333 13.333v6.667c0 6.667-2.667 9.333-9.333 9.333h-8c-6.667 0-9.333-2.667-9.333-9.333v-8c0-6.667 2.667-9.333 9.333-9.333h6.667"></path>
<path fill="none"  stroke-linejoin="round" stroke-linecap="round" stroke-miterlimit="4" stroke-width="1.6" d="M29.333 13.333h-5.333c-4 0-5.333-1.333-5.333-5.333v-5.333l10.667 10.667z"></path>
</symbol>
</defs>
</svg>
